HIERARCHY
ROOT Hips
{
	OFFSET	0.00	0.00	0.00
	CHANNELS 6 Xposition Yposition Zposition Zrotation Xrotation Yrotation
	JOINT Chest
	{
		OFFSET	0.00	6.28	0.00
		CHANNELS 3 Zrotation Xrotation Yrotation
		JOINT Neck
		{
			OFFSET	0.00	14.30	0.00
			CHANNELS 3 Zrotation Xrotation Yrotation
			JOINT Head
			{
				OFFSET	0.00	2.64	0.00
				CHANNELS 3 Zrotation Xrotation Yrotation
				End Site
				{
					OFFSET	0.00	4.50	0.00
				}
			}
		}
		JOINT LeftCollar
		{
			OFFSET	1.12	11.36	1.87
			CHANNELS 3 Zrotation Xrotation Yrotation
			JOINT LeftUpArm
			{
				OFFSET	4.57	2.02	-1.82
				CHANNELS 3 Zrotation Xrotation Yrotation
				JOINT LeftLowArm
				{
					OFFSET	0.22	-10.35	-0.06
					CHANNELS 3 Zrotation Xrotation Yrotation
					JOINT LeftHand
					{
						OFFSET	0.09	-10.35	2.18
						CHANNELS 3 Zrotation Xrotation Yrotation
						End Site
						{
							OFFSET	0.13	-6.69	1.71
						}
					}
				}
			}
		}
		JOINT RightCollar
		{
			OFFSET	-1.12	11.36	1.87
			CHANNELS 3 Zrotation Xrotation Yrotation
			JOINT RightUpArm
			{
				OFFSET	-4.71	2.03	-1.82
				CHANNELS 3 Zrotation Xrotation Yrotation
				JOINT RightLowArm
				{
					OFFSET	-0.26	-10.43	-0.06
					CHANNELS 3 Zrotation Xrotation Yrotation
					JOINT RightHand
					{
						OFFSET	0.00	-10.26	2.18
						CHANNELS 3 Zrotation Xrotation Yrotation
						End Site
						{
							OFFSET	-0.14	-6.67	1.71
						}
					}
				}
			}
		}
	}
	JOINT LeftUpLeg
	{
		OFFSET	3.91	0.00	0.00
		CHANNELS 3 Zrotation Xrotation Yrotation
		JOINT LeftLowLeg
		{
			OFFSET	-0.44	-17.57	1.70
			CHANNELS 3 Zrotation Xrotation Yrotation
			JOINT LeftFoot
			{
				OFFSET	-0.04	-17.20	-1.48
				CHANNELS 3 Zrotation Xrotation Yrotation
				End Site
				{
					OFFSET	0.00	-3.93	5.23
				}
			}
		}
	}
	JOINT RightUpLeg
	{
		OFFSET	-3.91	0.00	0.00
		CHANNELS 3 Zrotation Xrotation Yrotation
		JOINT RightLowLeg
		{
			OFFSET	0.44	-17.62	1.70
			CHANNELS 3 Zrotation Xrotation Yrotation
			JOINT RightFoot
			{
				OFFSET	0.00	-17.14	-1.48
				CHANNELS 3 Zrotation Xrotation Yrotation
				End Site
				{
					OFFSET	0.00	-4.04	5.23
				}
			}
		}
	}
}
MOTION
Frames: 21
Frame Time: 0.04
-7.53	4.99	15.34	2.08	-1.82	104.60	0.47	1.65	0.32	3.48	12.36	-9.01	0.91	-1.29	0.29	-7.62	0.80	-10.23	22.74	-8.49	-42.76	-3.78	1.12	3.37	-8.12	2.58	-1.72	11.25	-2.77	6.15	-17.44	-1.57	40.40	-4.84	6.10	2.02	13.85	2.75	2.94	2.83	-3.65	-0.80	-2.90	15.94	-5.61	-0.00	-10.43	-0.15	1.55	1.81	-16.70	3.12	7.90	10.29	-2.43	-6.71	4.98	
-7.57	4.96	15.34	2.25	-1.68	104.25	0.62	1.81	0.79	3.45	12.19	-8.68	0.77	-1.04	0.24	-7.43	1.15	-9.91	22.30	-8.77	-42.23	-3.89	1.02	3.45	-7.79	2.58	-1.65	11.23	-2.44	6.22	-17.72	-2.07	42.29	-4.85	6.16	2.02	13.50	2.74	2.87	2.77	-3.61	-0.36	-2.94	16.29	-5.67	0.11	-10.63	-0.14	1.32	1.66	-16.78	3.22	8.57	10.64	-2.73	-7.03	4.96	
-7.37	4.84	15.54	1.48	-2.23	103.34	-0.80	-1.75	2.49	5.72	14.58	-9.35	0.73	-0.86	0.22	-3.84	-4.38	-13.92	18.89	-0.00	-41.80	-4.01	0.91	3.53	-7.73	2.57	-1.64	11.14	-8.20	8.12	-14.88	6.11	43.16	-4.91	6.13	2.10	13.03	2.71	2.77	3.92	-4.97	1.84	-3.37	18.23	-6.94	0.28	-12.06	-0.11	1.90	0.24	-15.24	3.22	10.03	9.89	-3.33	-8.05	4.89	
-7.52	4.81	15.49	1.74	-2.20	101.89	0.35	-0.44	3.18	4.63	13.54	-8.16	0.53	-0.90	0.16	-5.47	-1.87	-12.13	20.21	-3.10	-42.87	-4.18	0.78	3.67	-8.04	2.58	-1.70	11.25	-5.68	7.52	-16.52	2.18	45.31	-5.01	6.02	2.23	12.53	2.69	2.67	3.90	-4.81	3.17	-3.36	18.51	-6.72	0.42	-12.24	-0.10	1.72	-0.04	-13.88	3.22	10.49	9.94	-3.32	-8.02	4.89	
-7.56	4.79	15.52	1.91	-2.12	101.92	0.34	-0.25	2.78	4.81	13.51	-7.55	0.32	-1.00	0.10	-5.54	-1.91	-12.40	20.24	-2.37	-44.02	-4.41	0.67	3.85	-8.55	2.60	-1.81	11.43	-5.80	7.46	-16.56	1.82	46.42	-5.19	6.01	2.37	12.12	2.67	2.58	3.96	-4.82	3.41	-3.43	18.82	-6.90	0.56	-12.39	-0.08	1.66	-0.10	-14.02	3.25	10.89	10.05	-3.39	-8.20	4.88	
-7.60	4.77	15.54	2.06	-2.09	102.05	0.49	-0.11	2.11	4.77	13.53	-7.02	0.27	-0.99	0.08	-5.70	-1.97	-12.54	20.21	-1.67	-45.66	-4.74	0.67	4.10	-9.22	2.62	-1.95	11.33	-5.76	7.42	-16.38	1.31	46.60	-5.28	5.93	2.48	11.62	2.65	2.48	4.03	-4.84	3.53	-3.51	19.03	-7.10	0.60	-12.50	-0.07	1.59	0.02	-14.05	3.21	11.10	9.82	-3.45	-8.31	4.87	
-7.73	4.82	15.46	2.91	-1.28	104.15	0.81	2.31	-0.70	3.86	12.08	-6.48	0.30	-0.64	0.09	-7.47	1.48	-10.47	22.05	-6.22	-46.66	-5.68	0.90	4.82	-1.81	2.47	-0.38	11.72	-2.30	6.03	-17.91	-4.10	46.50	-5.23	5.74	2.53	11.48	2.64	2.45	2.91	-3.92	0.82	-3.29	18.06	-6.49	0.45	-11.68	-0.10	0.84	1.14	-16.60	3.26	10.98	10.30	-3.44	-8.28	4.87	
-7.76	4.86	15.47	3.68	-0.86	104.42	0.53	3.85	-1.06	4.00	11.28	-6.60	0.39	0.11	0.11	-7.88	3.27	-9.67	22.97	-8.57	-47.95	-5.73	0.88	4.32	-2.45	2.47	-0.52	12.38	-0.96	5.21	-18.67	-6.12	48.43	-6.08	6.71	2.65	12.35	2.68	2.63	2.66	-2.79	0.55	-3.25	17.36	-6.50	0.38	-11.29	-0.11	-0.00	0.67	-15.67	3.27	13.10	9.51	-0.81	-7.19	4.99	
-7.74	4.81	15.52	3.16	-1.14	104.45	-0.07	2.67	-0.51	5.29	11.63	-7.78	0.29	0.39	0.08	-7.35	2.30	-10.16	22.54	-7.04	-50.25	-6.17	1.16	4.86	-4.36	2.50	-0.93	13.19	-3.04	4.87	-18.27	-4.05	44.76	-4.79	5.24	2.34	11.65	2.65	2.48	2.93	-3.80	0.67	-3.32	18.25	-6.55	0.44	-11.75	-0.10	0.84	1.28	-16.75	3.25	11.23	10.12	-3.40	-8.39	4.87	
-7.75	4.80	15.56	3.19	-1.05	104.65	0.62	2.18	-1.26	4.07	12.17	-7.62	0.82	0.54	0.23	-7.29	1.55	-10.94	21.52	-5.54	-51.50	-6.20	1.02	4.93	-5.37	2.52	-1.14	11.77	-2.40	5.72	-17.60	-4.16	42.97	-4.63	4.98	2.36	12.71	2.70	2.70	2.88	-3.87	0.51	-3.31	18.36	-6.52	0.51	-11.68	-0.09	0.84	1.13	-17.19	3.31	11.40	10.46	-3.52	-8.53	4.86	
-7.75	4.80	15.59	3.18	-0.94	104.78	0.53	2.00	-1.21	4.09	12.26	-7.94	0.98	0.58	0.28	-7.16	1.36	-11.14	21.27	-5.14	-52.91	-6.03	0.70	4.90	-6.17	2.53	-1.31	11.73	-2.57	5.84	-17.54	-3.79	42.46	-4.58	4.98	2.33	13.15	2.72	2.80	2.77	-3.92	0.32	-3.29	18.41	-6.44	0.55	-11.65	-0.09	0.75	1.04	-17.37	3.33	11.64	10.48	-3.70	-8.65	4.84	
-7.75	4.79	15.62	3.27	-0.84	104.87	0.59	1.94	-1.17	3.98	12.29	-8.10	1.06	0.69	0.30	-7.16	1.23	-11.11	21.24	-4.80	-59.10	-5.32	-0.55	4.57	-5.40	2.52	-1.15	11.61	-2.53	6.00	-17.58	-3.61	42.88	-4.55	5.05	2.30	13.05	2.71	2.78	2.71	-3.88	0.09	-3.24	18.49	-6.29	0.42	-11.69	-0.10	0.69	1.04	-17.44	3.33	11.86	10.43	-3.70	-8.71	4.84	
-7.74	4.78	15.64	3.38	-0.77	104.94	-0.07	2.33	-0.46	5.15	11.71	-8.72	0.72	0.86	0.20	-7.13	2.02	-10.19	21.97	-6.30	-59.36	-5.19	-0.80	4.49	-5.20	2.51	-1.10	12.96	-3.09	5.20	-18.23	-3.46	43.68	-4.65	5.32	2.28	12.92	2.71	2.75	2.67	-3.81	-0.15	-3.20	18.57	-6.10	0.32	-11.74	-0.11	0.67	1.10	-17.46	3.33	12.01	10.38	-3.70	-8.77	4.83	
-7.73	4.78	15.67	3.50	-0.74	105.01	0.89	1.83	-1.05	3.64	12.29	-8.08	1.21	0.96	0.33	-7.32	1.37	-10.63	21.12	-5.21	-57.66	-5.07	-0.99	4.39	-4.66	2.50	-0.99	11.43	-2.16	6.21	-17.83	-3.52	43.76	-4.64	5.56	2.12	12.53	2.69	2.67	2.66	-3.71	-0.36	-3.16	18.61	-5.98	0.26	-11.77	-0.12	0.72	1.28	-17.65	3.34	11.97	10.47	-3.90	-8.82	4.82	
-7.70	4.78	15.69	3.59	-0.73	105.13	0.99	1.61	-0.94	3.56	12.36	-8.08	1.33	1.30	0.36	-7.24	1.26	-10.53	20.81	-5.44	-51.10	-5.52	-0.19	4.60	-5.30	2.51	-1.13	11.29	-2.21	6.35	-17.81	-3.21	43.64	-4.66	5.62	2.14	13.04	2.71	2.77	2.71	-3.62	-0.56	-3.14	18.64	-5.89	0.14	-11.84	-0.13	0.81	1.43	-17.80	3.34	11.92	10.49	-3.96	-8.84	4.82	
-7.67	4.78	15.72	3.66	-0.70	105.29	0.23	1.74	-0.18	4.84	11.91	-8.77	1.07	1.71	0.28	-7.19	2.06	-9.72	21.70	-7.07	-51.18	-5.52	-0.23	4.62	-4.84	2.51	-1.03	12.74	-2.81	5.44	-18.51	-2.82	43.81	-4.71	5.85	2.03	13.07	2.72	2.78	2.76	-3.52	-0.67	-3.16	18.62	-5.96	0.15	-11.83	-0.13	0.87	1.59	-17.98	3.34	11.85	10.52	-3.99	-8.81	4.82	
-7.63	4.78	15.75	3.69	-0.64	105.50	0.86	0.95	-0.58	3.71	12.54	-8.55	1.64	2.15	0.42	-7.16	1.54	-10.35	21.14	-6.10	-50.83	-5.74	-0.15	4.81	-3.62	2.49	-0.77	11.45	-2.03	6.20	-18.00	-2.78	42.96	-4.65	5.76	2.09	13.42	2.73	2.85	2.76	-3.45	-0.89	-3.16	18.59	-5.98	0.10	-11.83	-0.13	0.92	1.74	-18.14	3.32	11.76	10.45	-4.08	-8.87	4.81	
-7.58	4.79	15.77	3.63	-0.62	105.80	0.91	0.34	-0.67	3.53	12.77	-8.71	1.93	2.58	0.48	-7.12	1.15	-10.25	20.97	-6.02	-52.67	-4.91	-0.26	4.37	-3.97	2.49	-0.84	11.10	-2.19	6.37	-17.75	-2.16	42.52	-4.65	5.82	2.03	13.53	2.74	2.88	2.77	-3.47	-1.18	-3.17	18.56	-6.03	0.07	-11.84	-0.14	0.97	1.82	-18.43	3.32	11.69	10.44	-4.15	-8.91	4.80	
-7.52	4.79	15.80	3.64	-0.57	106.11	0.89	-0.23	-0.65	3.43	13.00	-8.95	2.13	2.96	0.51	-7.07	0.82	-10.23	20.91	-5.92	-52.53	-4.79	-0.10	4.27	-3.64	2.49	-0.77	10.81	-2.35	6.42	-17.49	-1.59	41.85	-4.62	5.83	2.03	13.59	2.74	2.89	2.79	-3.39	-1.43	-3.20	18.53	-6.13	0.07	-11.89	-0.14	1.02	1.99	-18.73	3.32	11.61	10.45	-4.18	-8.99	4.80	
-7.45	4.78	15.82	3.72	-0.48	106.52	0.83	-0.68	-0.71	3.33	13.20	-9.12	2.21	3.20	0.52	-6.99	0.48	-10.28	20.84	-5.78	-52.37	-4.69	0.06	4.19	-3.48	2.49	-0.74	10.63	-2.58	6.46	-17.38	-1.00	41.35	-4.59	5.81	2.01	13.82	2.75	2.94	2.79	-3.24	-1.84	-3.21	18.52	-6.17	-0.09	-12.02	-0.16	1.03	2.21	-19.22	3.33	11.64	10.54	-4.26	-9.12	4.78	
-7.38	4.77	15.84	3.81	-0.34	106.89	0.65	-1.17	-0.64	3.38	13.47	-9.40	2.23	3.30	0.52	-6.84	0.09	-10.55	20.75	-5.39	-51.98	-4.62	0.16	4.12	-3.30	2.48	-0.70	10.52	-2.98	6.54	-17.12	-0.20	41.12	-4.67	5.90	2.00	13.90	2.76	2.95	2.75	-3.10	-2.11	-3.24	18.58	-6.29	-0.05	-12.10	-0.15	0.96	2.39	-19.64	3.35	11.82	10.59	-4.30	-9.35	4.76	
